<?xml version="1.0" encoding="UTF-8"?>
<svg id="_레이어_1" data-name="레이어 1" xmlns="http://www.w3.org/2000/svg" viewBox="0 0 300 60">
  <defs>
    <style>
      .cls-1, .cls-2 {
        fill: #fff;
      }

      .cls-2 {
        fill-rule: evenodd;
      }
    </style>
  </defs>
  <path class="cls-2" d="m30.05,53.26h239.89c12.84,0,23.26-10.41,23.26-23.26s-10.41-23.26-23.26-23.26H30.05c-12.84,0-23.26,10.41-23.26,23.26s10.41,23.26,23.26,23.26ZM269.95,1.12c15.95,0,28.88,12.93,28.88,28.88s-12.93,28.88-28.88,28.88H30.05c-15.95,0-28.88-12.93-28.88-28.88,0-15.95,12.93-28.88,28.88-28.88h239.89Z"/>
  <path class="cls-1" d="m57.84,23.8c-.12-2.09-.71-3.79-1.78-5.13-1.07-1.33-2.42-2.33-4.04-3-1.62-.7-3.32-1.16-5.08-1.39-1.77-.23-3.61-.35-5.52-.35-5.01,0-8.83.78-11.47,2.35-2.61,1.56-3.91,4.03-3.91,7.39,0,1.51.28,2.8.83,3.87.58,1.04,1.36,1.88,2.35,2.52.98.64,2.07,1.14,3.26,1.52,1.22.35,2.61.64,4.17.87l7.69,1.17c1.85.29,3.19.68,4,1.17.84.46,1.26,1.26,1.26,2.39,0,1.3-.59,2.27-1.78,2.91-1.19.64-2.81.96-4.87.96-1.01,0-1.98-.06-2.91-.17-.9-.14-1.74-.39-2.52-.74-.75-.38-1.36-.9-1.82-1.56-.46-.67-.71-1.51-.74-2.52h-9.47c.03,2.29.56,4.16,1.61,5.6,1.04,1.45,2.4,2.53,4.08,3.26,1.71.72,3.52,1.2,5.43,1.43,1.94.23,4.06.35,6.34.35,2.95,0,5.47-.26,7.56-.78,2.09-.52,3.75-1.26,5-2.22,1.27-.96,2.19-2.06,2.74-3.3.55-1.25.83-2.62.83-4.13,0-1.36-.25-2.55-.74-3.56-.49-1.01-1.19-1.85-2.09-2.52-.87-.67-1.9-1.2-3.08-1.61-1.16-.41-2.51-.74-4.04-1l-10.56-1.69c-1.13-.17-2.01-.49-2.65-.96-.61-.49-.91-1.14-.91-1.96,0-1.07.52-1.94,1.56-2.61,1.07-.7,2.46-1.04,4.17-1.04,1.01,0,1.93.06,2.74.17.81.09,1.58.29,2.3.61.72.29,1.33.74,1.82,1.35.49.61.8,1.39.91,2.35h9.34Z"/>
  <path class="cls-1" d="m62.94,45.83h29.15v-5.91h-20.72v-7.13h19.51v-5.65h-19.51v-6.43h20.55v-5.91h-28.98v31.02Z"/>
  <path class="cls-1" d="m112.18,34.79c0,1.01-.06,1.9-.17,2.65-.12.72-.35,1.36-.69,1.91-.35.52-.85.94-1.52,1.26-.67.29-1.54.43-2.61.43-1.39,0-2.51-.43-3.35-1.3-.81-.9-1.22-2.07-1.22-3.52v-2.17h-8.43v1.96c0,2.11.36,3.88,1.09,5.3.75,1.39,1.77,2.49,3.04,3.3,1.3.78,2.77,1.32,4.39,1.61,1.62.32,3.42.48,5.39.48,2.9,0,5.21-.39,6.95-1.17,1.74-.81,3-1.84,3.78-3.08.78-1.27,1.27-2.59,1.48-3.95.2-1.36.3-2.94.3-4.74V14.81h-8.43v19.99Z"/>
  <path class="cls-1" d="m126.5,45.83h8.43V14.81h-8.43v31.02Z"/>
  <path class="cls-1" d="m167,36.44h-.09l-16.29-21.64h-9.78v31.02h8.17v-21.64h.09l16.9,21.64h9.17V14.81h-8.17v21.64Z"/>
  <path class="cls-1" d="m195.41,30.32c0,1.91.25,3.79.74,5.65.52,1.82,1.46,3.56,2.82,5.21,1.36,1.62,3.33,2.95,5.91,4,2.61,1.01,5.88,1.52,9.82,1.52s7.2-.51,9.78-1.52c2.61-1.04,4.59-2.38,5.95-4,1.36-1.65,2.29-3.39,2.78-5.21.52-1.85.78-3.74.78-5.65s-.26-3.78-.78-5.6c-.49-1.85-1.42-3.59-2.78-5.21-1.36-1.65-3.35-2.98-5.95-4-2.58-1.04-5.84-1.56-9.78-1.56s-7.21.52-9.82,1.56c-2.58,1.01-4.55,2.35-5.91,4-1.36,1.62-2.3,3.36-2.82,5.21-.49,1.82-.74,3.69-.74,5.6Zm8.95,0c0-1.27.19-2.52.56-3.74.38-1.25.97-2.38,1.78-3.39.84-1.01,1.93-1.82,3.26-2.43,1.33-.61,2.91-.91,4.74-.91s3.4.3,4.74.91c1.33.61,2.4,1.42,3.21,2.43.84,1.01,1.45,2.14,1.82,3.39.38,1.22.56,2.46.56,3.74s-.19,2.53-.56,3.78c-.38,1.22-.98,2.33-1.82,3.35-.81,1.01-1.88,1.82-3.21,2.43-1.33.61-2.91.91-4.74.91s-3.4-.3-4.74-.91c-1.33-.61-2.42-1.42-3.26-2.43-.81-1.01-1.4-2.13-1.78-3.35-.38-1.25-.56-2.51-.56-3.78Z"/>
  <path class="cls-1" d="m238.17,45.83h8.43v-13.47h17.47v13.47h8.43V14.81h-8.43v11.64h-17.47v-11.64h-8.43v31.02Z"/>
</svg>