<?xml version="1.0" encoding="UTF-8"?>
<svg id="_레이어_1" data-name="레이어 1" xmlns="http://www.w3.org/2000/svg" 
 width="200.000000pt" height="200.000000pt" viewBox="0 0 500.000000 500.000000"
>
  <defs>
    <style>
      .cls-1 {
        fill-rule: evenodd;
      }
    </style>
  </defs>
  <metadata>
Created by designersejinoh.
</metadata>
  <path class="cls-1" d="m56.34,287.55h387.31c20.74,0,37.55-16.81,37.55-37.55s-16.81-37.55-37.55-37.55H56.34c-20.74,0-37.55,16.81-37.55,37.55s16.81,37.55,37.55,37.55Zm387.31-84.18c25.75,0,46.63,20.88,46.63,46.63s-20.88,46.63-46.63,46.63H56.34c-25.75,0-46.63-20.88-46.63-46.63s20.88-46.63,46.63-46.63h387.31Z"/>
  <path d="m101.2,239.99c-.19-3.37-1.15-6.13-2.88-8.28-1.73-2.15-3.91-3.76-6.52-4.84-2.62-1.12-5.35-1.87-8.21-2.24-2.85-.37-5.82-.56-8.91-.56-8.09,0-14.26,1.26-18.52,3.79-4.21,2.53-6.31,6.5-6.31,11.93,0,2.43.44,4.51,1.33,6.24.94,1.68,2.2,3.04,3.79,4.07,1.59,1.03,3.34,1.85,5.26,2.46,1.96.56,4.21,1.03,6.73,1.4l12.42,1.89c2.99.47,5.14,1.1,6.45,1.89,1.36.75,2.03,2.03,2.03,3.86,0,2.1-.96,3.67-2.88,4.7-1.92,1.03-4.54,1.54-7.86,1.54-1.64,0-3.2-.09-4.7-.28-1.45-.23-2.81-.63-4.07-1.19-1.22-.61-2.2-1.45-2.95-2.53-.75-1.08-1.15-2.43-1.19-4.07h-15.29c.05,3.69.91,6.71,2.6,9.05,1.68,2.34,3.88,4.09,6.59,5.26,2.76,1.17,5.68,1.94,8.77,2.31,3.13.37,6.55.56,10.24.56,4.77,0,8.84-.42,12.21-1.26,3.37-.84,6.06-2.03,8.07-3.58,2.06-1.54,3.53-3.32,4.42-5.33.89-2.01,1.33-4.23,1.33-6.66,0-2.2-.4-4.12-1.19-5.75-.8-1.64-1.92-2.99-3.37-4.07-1.4-1.08-3.06-1.94-4.98-2.6-1.87-.65-4.05-1.19-6.52-1.61l-17.05-2.74c-1.82-.28-3.25-.8-4.28-1.54-.98-.79-1.47-1.85-1.47-3.16,0-1.73.84-3.13,2.53-4.21,1.73-1.12,3.97-1.68,6.73-1.68,1.64,0,3.11.09,4.42.28,1.31.14,2.55.47,3.72.98,1.17.47,2.15,1.19,2.95,2.17.79.98,1.29,2.24,1.47,3.79h15.08Z"/>
  <path d="m109.44,275.55h47.07v-9.54h-33.46v-11.5h31.5v-9.12h-31.5v-10.38h33.18v-9.54h-46.79v50.08Z"/>
  <path d="m188.94,257.74c0,1.64-.09,3.06-.28,4.28-.19,1.17-.56,2.2-1.12,3.09-.56.84-1.38,1.52-2.45,2.03-1.08.47-2.48.7-4.21.7-2.24,0-4.04-.7-5.4-2.1-1.31-1.45-1.96-3.34-1.96-5.68v-3.51h-13.61v3.16c0,3.41.58,6.27,1.75,8.56,1.22,2.24,2.85,4.02,4.91,5.33,2.1,1.26,4.47,2.13,7.09,2.6,2.62.51,5.52.77,8.7.77,4.68,0,8.42-.63,11.22-1.89,2.81-1.31,4.84-2.97,6.1-4.98,1.26-2.06,2.06-4.19,2.39-6.38.33-2.2.49-4.75.49-7.65v-30.58h-13.61v32.27Z"/>
  <path d="m212.06,275.55h13.61v-50.08h-13.61v50.08Z"/>
  <path d="m277.44,260.4h-.14l-26.3-34.93h-15.78v50.08h13.19v-34.93h.14l27.29,34.93h14.8v-50.08h-13.19v34.93Z"/>
  <path d="m323.31,250.51c0,3.09.4,6.13,1.19,9.12.84,2.95,2.36,5.75,4.56,8.42,2.2,2.62,5.38,4.77,9.54,6.45,4.21,1.64,9.49,2.46,15.85,2.46s11.62-.82,15.78-2.46c4.21-1.68,7.41-3.83,9.61-6.45,2.2-2.67,3.69-5.47,4.49-8.42.84-2.99,1.26-6.03,1.26-9.12s-.42-6.1-1.26-9.05c-.79-2.99-2.29-5.8-4.49-8.42-2.2-2.67-5.4-4.82-9.61-6.45-4.16-1.68-9.42-2.53-15.78-2.53s-11.64.84-15.85,2.53c-4.16,1.64-7.34,3.79-9.54,6.45-2.2,2.62-3.72,5.42-4.56,8.42-.79,2.95-1.19,5.96-1.19,9.05Zm14.45,0c0-2.06.3-4.07.91-6.03.61-2.01,1.57-3.83,2.88-5.47,1.36-1.64,3.11-2.95,5.26-3.93,2.15-.98,4.7-1.47,7.65-1.47s5.49.49,7.65,1.47c2.15.98,3.88,2.29,5.19,3.93,1.36,1.64,2.34,3.46,2.95,5.47.61,1.96.91,3.98.91,6.03s-.3,4.09-.91,6.1c-.61,1.96-1.59,3.76-2.95,5.4-1.31,1.64-3.04,2.95-5.19,3.93-2.15.98-4.7,1.47-7.65,1.47s-5.49-.49-7.65-1.47c-2.15-.98-3.91-2.29-5.26-3.93-1.31-1.64-2.27-3.44-2.88-5.4-.61-2.01-.91-4.05-.91-6.1Z"/>
  <path d="m392.36,275.55h13.61v-21.75h28.2v21.75h13.61v-50.08h-13.61v18.8h-28.2v-18.8h-13.61v50.08Z"/>
</svg>